<svg xmlns="http://www.w3.org/2000/svg" xmlns:xlink="http://www.w3.org/1999/xlink" width="500" zoomAndPan="magnify" viewBox="0 0 375 374.999991" height="500" preserveAspectRatio="xMidYMid meet" version="1.0"><defs><g/></defs><g fill="#000000" fill-opacity="1"><g transform="translate(151.805054, 301.944406)"><g><path d="M 29.296875 -65.484375 C 20.765625 -54.328125 16.5 -42.265625 16.5 -29.296875 C 16.5 -13.867188 22.976562 -1.890625 35.9375 6.640625 C 43.488281 11.734375 52.066406 14.28125 61.671875 14.28125 C 71.273438 14.28125 79.601562 12.390625 86.65625 8.609375 C 99.945312 1.722656 107.414062 -9.84375 109.0625 -26.09375 C 109.226562 -27.238281 109.3125 -28.390625 109.3125 -29.546875 C 109.3125 -35.617188 107.628906 -42.179688 104.265625 -49.234375 C 100.898438 -56.296875 95.441406 -62.78125 87.890625 -68.6875 L 43.578125 -103.640625 C 33.890625 -111.191406 29.046875 -120.957031 29.046875 -132.9375 C 29.046875 -144.914062 32.898438 -155.050781 40.609375 -163.34375 C 48.328125 -171.632812 58.753906 -175.78125 71.890625 -175.78125 C 78.453125 -175.78125 85.59375 -174.957031 93.3125 -173.3125 L 103.15625 -173.3125 L 103.640625 -143.03125 L 101.1875 -143.03125 C 101.019531 -150.914062 98.1875 -157.113281 92.6875 -161.625 C 87.1875 -166.132812 80.289062 -168.390625 72 -168.390625 C 63.71875 -168.390625 56.785156 -165.640625 51.203125 -160.140625 C 45.628906 -154.640625 42.84375 -147.582031 42.84375 -138.96875 C 42.84375 -130.351562 46.453125 -123.175781 53.671875 -117.4375 L 99.21875 -81.484375 C 117.269531 -67.203125 126.296875 -49.96875 126.296875 -29.78125 C 126.296875 -14.6875 120.304688 -1.722656 108.328125 9.109375 C 97.984375 18.460938 84.195312 23.140625 66.96875 23.140625 C 56.457031 23.140625 47.097656 21.171875 38.890625 17.234375 C 23.460938 10.015625 14.191406 -2.289062 11.078125 -19.6875 C 10.585938 -22.320312 10.34375 -25.648438 10.34375 -29.671875 C 10.34375 -33.691406 11.488281 -39.1875 13.78125 -46.15625 C 16.082031 -53.132812 20.515625 -60.148438 27.078125 -67.203125 Z M 29.296875 -65.484375 "/></g></g></g><g fill="#000000" fill-opacity="1"><g transform="translate(60.135831, 221.894408)"><g><path d="M 196.21875 -86.40625 C 196.21875 -58.175781 188.625 -36.140625 173.4375 -20.296875 C 158.257812 -4.460938 136.800781 3.453125 109.0625 3.453125 C 90.351562 3.453125 73.488281 -0.484375 58.46875 -8.359375 C 43.445312 -16.242188 31.789062 -26.992188 23.5 -40.609375 C 15.21875 -54.234375 11.078125 -69.457031 11.078125 -86.28125 C 11.078125 -103.101562 15.179688 -118.328125 23.390625 -131.953125 C 31.597656 -145.578125 42.921875 -156.285156 57.359375 -164.078125 C 71.804688 -171.878906 87.890625 -175.78125 105.609375 -175.78125 C 116.773438 -175.78125 128.140625 -174.257812 139.703125 -171.21875 C 151.273438 -168.1875 160.921875 -164.125 168.640625 -159.03125 L 173.5625 -124.328125 L 171.34375 -124.328125 C 167.894531 -138.109375 159.929688 -148.894531 147.453125 -156.6875 C 134.984375 -164.488281 121.117188 -168.390625 105.859375 -168.390625 C 84.035156 -168.390625 65.859375 -160.632812 51.328125 -145.125 C 36.804688 -129.613281 29.546875 -110.125 29.546875 -86.65625 C 29.546875 -63.1875 37.050781 -43.53125 52.0625 -27.6875 C 67.082031 -11.851562 86.738281 -3.9375 111.03125 -3.9375 C 135.320312 -3.9375 155.140625 -11.8125 170.484375 -27.5625 C 185.828125 -43.320312 193.5 -64.90625 193.5 -92.3125 L 195.96875 -92.3125 C 196.132812 -90.34375 196.21875 -88.375 196.21875 -86.40625 Z M 196.21875 -86.40625 "/></g></g></g><path fill="#ffffff" d="M 36.308594 166.070312 L 311.09375 166.070312 C 312.738281 166.070312 314.316406 166.726562 315.480469 167.890625 C 316.644531 169.054688 317.296875 170.632812 317.296875 172.277344 L 317.296875 184.683594 C 317.296875 186.332031 316.644531 187.90625 315.480469 189.070312 C 314.316406 190.234375 312.738281 190.890625 311.09375 190.890625 L 36.308594 190.890625 C 32.882812 190.890625 30.105469 188.109375 30.105469 184.683594 L 30.105469 172.277344 C 30.105469 168.851562 32.882812 166.070312 36.308594 166.070312 Z M 36.308594 166.070312 " fill-opacity="1" fill-rule="nonzero"/><g fill="#000000" fill-opacity="1"><g transform="translate(42.226731, 183.131741)"><g><path d="M 10.46875 -2.140625 C 10.039062 -1.410156 9.441406 -0.847656 8.671875 -0.453125 C 7.910156 -0.0546875 7.050781 0.140625 6.09375 0.140625 C 4.96875 0.140625 4 -0.0703125 3.1875 -0.5 C 2.382812 -0.9375 1.769531 -1.5625 1.34375 -2.375 C 0.914062 -3.1875 0.703125 -4.160156 0.703125 -5.296875 C 0.703125 -6.460938 0.9375 -7.484375 1.40625 -8.359375 C 1.882812 -9.242188 2.546875 -9.929688 3.390625 -10.421875 C 4.242188 -10.921875 5.226562 -11.171875 6.34375 -11.171875 C 7.289062 -11.171875 8.101562 -10.988281 8.78125 -10.625 C 9.46875 -10.257812 10.035156 -9.710938 10.484375 -8.984375 L 8.9375 -7.859375 C 8.65625 -8.378906 8.285156 -8.757812 7.828125 -9 C 7.378906 -9.238281 6.878906 -9.359375 6.328125 -9.359375 C 5.628906 -9.359375 5.007812 -9.1875 4.46875 -8.84375 C 3.925781 -8.5 3.503906 -8.023438 3.203125 -7.421875 C 2.898438 -6.816406 2.75 -6.117188 2.75 -5.328125 C 2.75 -4.171875 3.046875 -3.269531 3.640625 -2.625 C 4.234375 -1.988281 5.0625 -1.671875 6.125 -1.671875 C 6.71875 -1.671875 7.257812 -1.804688 7.75 -2.078125 C 8.25 -2.347656 8.65625 -2.757812 8.96875 -3.3125 Z M 10.46875 -2.140625 "/></g></g></g><g fill="#000000" fill-opacity="1"><g transform="translate(64.409589, 183.131741)"><g><path d="M -0.15625 0 L 4.546875 -11.015625 L 6.25 -11.015625 L 10.765625 0 L 8.71875 0 L 7.734375 -2.515625 L 2.921875 -2.515625 L 1.890625 0 Z M 3.609375 -4.203125 L 7.078125 -4.203125 L 5.375 -8.53125 Z M 3.609375 -4.203125 "/></g></g></g><g fill="#000000" fill-opacity="1"><g transform="translate(86.902771, 183.131741)"><g><path d="M 9.84375 -1.921875 L 10.296875 -0.359375 C 10.085938 -0.203125 9.832031 -0.0820312 9.53125 0 C 9.238281 0.09375 8.925781 0.140625 8.59375 0.140625 C 7.4375 0.140625 6.523438 -0.367188 5.859375 -1.390625 L 4.265625 -3.84375 C 4.097656 -4.101562 3.925781 -4.285156 3.75 -4.390625 C 3.570312 -4.492188 3.382812 -4.546875 3.1875 -4.546875 L 3.109375 -4.546875 L 3.109375 0 L 1.125 0 L 1.125 -11.015625 L 4.5625 -11.015625 C 5.957031 -11.015625 7.015625 -10.722656 7.734375 -10.140625 C 8.453125 -9.566406 8.8125 -8.769531 8.8125 -7.75 C 8.8125 -7.144531 8.675781 -6.625 8.40625 -6.1875 C 8.132812 -5.75 7.765625 -5.398438 7.296875 -5.140625 C 6.835938 -4.878906 6.3125 -4.710938 5.71875 -4.640625 C 6.03125 -4.472656 6.316406 -4.191406 6.578125 -3.796875 L 7.453125 -2.515625 C 7.671875 -2.179688 7.878906 -1.953125 8.078125 -1.828125 C 8.285156 -1.703125 8.546875 -1.640625 8.859375 -1.640625 C 9.222656 -1.640625 9.550781 -1.734375 9.84375 -1.921875 Z M 4.421875 -9.375 L 3.109375 -9.375 L 3.109375 -6.125 L 4.328125 -6.125 C 5.171875 -6.125 5.796875 -6.253906 6.203125 -6.515625 C 6.609375 -6.773438 6.8125 -7.1875 6.8125 -7.75 C 6.8125 -8.832031 6.015625 -9.375 4.421875 -9.375 Z M 4.421875 -9.375 "/></g></g></g><g fill="#000000" fill-opacity="1"><g transform="translate(108.449473, 183.131741)"><g><path d="M 6.03125 0.140625 C 4.914062 0.148438 3.957031 -0.0546875 3.15625 -0.484375 C 2.363281 -0.910156 1.753906 -1.53125 1.328125 -2.34375 C 0.910156 -3.164062 0.703125 -4.15625 0.703125 -5.3125 C 0.703125 -6.457031 0.925781 -7.472656 1.375 -8.359375 C 1.832031 -9.242188 2.476562 -9.929688 3.3125 -10.421875 C 4.144531 -10.921875 5.128906 -11.171875 6.265625 -11.171875 C 7.273438 -11.171875 8.160156 -10.941406 8.921875 -10.484375 C 9.691406 -10.035156 10.289062 -9.40625 10.71875 -8.59375 C 11.144531 -7.78125 11.359375 -6.820312 11.359375 -5.71875 C 11.359375 -4.53125 11.125 -3.5 10.65625 -2.625 C 10.195312 -1.75 9.566406 -1.066406 8.765625 -0.578125 C 7.972656 -0.0976562 7.0625 0.140625 6.03125 0.140625 Z M 5.96875 -1.671875 C 6.625 -1.671875 7.203125 -1.832031 7.703125 -2.15625 C 8.203125 -2.476562 8.59375 -2.9375 8.875 -3.53125 C 9.164062 -4.132812 9.3125 -4.863281 9.3125 -5.71875 C 9.3125 -6.832031 9.03125 -7.71875 8.46875 -8.375 C 7.914062 -9.039062 7.164062 -9.375 6.21875 -9.375 C 5.550781 -9.375 4.953125 -9.203125 4.421875 -8.859375 C 3.898438 -8.515625 3.488281 -8.039062 3.1875 -7.4375 C 2.894531 -6.84375 2.75 -6.144531 2.75 -5.34375 C 2.75 -4.164062 3.035156 -3.257812 3.609375 -2.625 C 4.179688 -1.988281 4.96875 -1.671875 5.96875 -1.671875 Z M 5.96875 -1.671875 "/></g></g></g><g fill="#000000" fill-opacity="1"><g transform="translate(132.323609, 183.131741)"><g><path d="M 1.125 0 L 1.125 -11.015625 L 3.15625 -11.015625 L 3.15625 -1.765625 L 8.046875 -1.765625 L 7.90625 0 Z M 1.125 0 "/></g></g></g><g fill="#000000" fill-opacity="1"><g transform="translate(152.116967, 183.131741)"><g><path d="M 1.125 0 L 1.125 -11.015625 L 3.15625 -11.015625 L 3.15625 0 Z M 1.125 0 "/></g></g></g><g fill="#000000" fill-opacity="1"><g transform="translate(168.217464, 183.131741)"><g><path d="M 8.375 -11.015625 L 10.3125 -11.015625 L 10.3125 0 L 8.546875 0 L 3.078125 -7.6875 L 3.078125 0 L 1.125 0 L 1.125 -11.015625 L 2.90625 -11.015625 L 8.375 -3.328125 Z M 8.375 -11.015625 "/></g></g></g><g fill="#000000" fill-opacity="1"><g transform="translate(191.486467, 183.131741)"><g><path d="M 8.21875 -9.28125 L 3.109375 -9.28125 L 3.109375 -6.4375 L 7.96875 -6.4375 L 7.96875 -4.703125 L 3.109375 -4.703125 L 3.109375 -1.734375 L 8.40625 -1.734375 L 8.265625 0 L 1.125 0 L 1.125 -11.015625 L 8.21875 -11.015625 Z M 8.21875 -9.28125 "/></g></g></g><g fill="#000000" fill-opacity="1"><g transform="translate(212.071154, 183.131741)"><g/></g></g><g fill="#000000" fill-opacity="1"><g transform="translate(227.659633, 183.131741)"><g><path d="M 4.5625 0.140625 C 3.269531 0.140625 2.257812 -0.144531 1.53125 -0.71875 C 0.8125 -1.300781 0.398438 -2.15625 0.296875 -3.28125 L 2.1875 -3.546875 C 2.375 -2.222656 3.195312 -1.5625 4.65625 -1.5625 C 5.28125 -1.5625 5.769531 -1.6875 6.125 -1.9375 C 6.476562 -2.195312 6.65625 -2.554688 6.65625 -3.015625 C 6.65625 -3.421875 6.476562 -3.726562 6.125 -3.9375 C 5.769531 -4.15625 5.207031 -4.359375 4.4375 -4.546875 C 3.707031 -4.722656 3.082031 -4.929688 2.5625 -5.171875 C 2.050781 -5.410156 1.660156 -5.738281 1.390625 -6.15625 C 1.117188 -6.570312 0.984375 -7.117188 0.984375 -7.796875 C 0.984375 -8.453125 1.148438 -9.03125 1.484375 -9.53125 C 1.816406 -10.039062 2.273438 -10.441406 2.859375 -10.734375 C 3.453125 -11.023438 4.140625 -11.171875 4.921875 -11.171875 C 5.941406 -11.171875 6.773438 -10.898438 7.421875 -10.359375 C 8.078125 -9.828125 8.460938 -9.085938 8.578125 -8.140625 L 6.8125 -7.84375 C 6.59375 -8.925781 5.929688 -9.46875 4.828125 -9.46875 C 4.285156 -9.46875 3.847656 -9.328125 3.515625 -9.046875 C 3.179688 -8.765625 3.015625 -8.394531 3.015625 -7.9375 C 3.015625 -7.488281 3.175781 -7.140625 3.5 -6.890625 C 3.832031 -6.648438 4.398438 -6.4375 5.203125 -6.25 C 5.910156 -6.082031 6.519531 -5.890625 7.03125 -5.671875 C 7.550781 -5.453125 7.953125 -5.144531 8.234375 -4.75 C 8.523438 -4.351562 8.671875 -3.816406 8.671875 -3.140625 C 8.671875 -2.492188 8.5 -1.925781 8.15625 -1.4375 C 7.8125 -0.945312 7.328125 -0.5625 6.703125 -0.28125 C 6.085938 0 5.375 0.140625 4.5625 0.140625 Z M 4.5625 0.140625 "/></g></g></g><g fill="#000000" fill-opacity="1"><g transform="translate(248.570151, 183.131741)"><g><path d="M -0.15625 0 L 4.546875 -11.015625 L 6.25 -11.015625 L 10.765625 0 L 8.71875 0 L 7.734375 -2.515625 L 2.921875 -2.515625 L 1.890625 0 Z M 3.609375 -4.203125 L 7.078125 -4.203125 L 5.375 -8.53125 Z M 3.609375 -4.203125 "/></g></g></g><g fill="#000000" fill-opacity="1"><g transform="translate(271.063343, 183.131741)"><g><path d="M 1.125 0 L 1.125 -11.015625 L 4.40625 -11.015625 C 6.550781 -11.015625 8.171875 -10.550781 9.265625 -9.625 C 10.359375 -8.707031 10.90625 -7.347656 10.90625 -5.546875 C 10.90625 -4.429688 10.660156 -3.457031 10.171875 -2.625 C 9.691406 -1.789062 9.003906 -1.144531 8.109375 -0.6875 C 7.222656 -0.226562 6.179688 0 4.984375 0 Z M 3.15625 -1.78125 L 4.90625 -1.78125 C 6.195312 -1.78125 7.175781 -2.09375 7.84375 -2.71875 C 8.519531 -3.34375 8.859375 -4.265625 8.859375 -5.484375 C 8.859375 -6.742188 8.515625 -7.679688 7.828125 -8.296875 C 7.140625 -8.921875 6.085938 -9.234375 4.671875 -9.234375 L 3.15625 -9.234375 Z M 3.15625 -1.78125 "/></g></g></g><g fill="#000000" fill-opacity="1"><g transform="translate(294.487509, 183.131741)"><g><path d="M -0.15625 0 L 4.546875 -11.015625 L 6.25 -11.015625 L 10.765625 0 L 8.71875 0 L 7.734375 -2.515625 L 2.921875 -2.515625 L 1.890625 0 Z M 3.609375 -4.203125 L 7.078125 -4.203125 L 5.375 -8.53125 Z M 3.609375 -4.203125 "/></g></g></g></svg>